<?xml version="1.0" encoding="utf-8"?>
<!-- Svg Vector Icons : http://www.onlinewebfonts.com/icon -->
<!DOCTYPE svg PUBLIC "-//W3C//DTD SVG 1.1//EN" "http://www.w3.org/Graphics/SVG/1.1/DTD/svg11.dtd">
<svg version="1.1" xmlns="http://www.w3.org/2000/svg" xmlns:xlink="http://www.w3.org/1999/xlink" x="0px" y="0px" viewBox="0 0 1000 1000" enable-background="new 0 0 1000 1000" xml:space="preserve">
<metadata> Svg Vector Icons : http://www.onlinewebfonts.com/icon </metadata>
<g><g><path d="M443.8,71.8c0-34.1,27.7-61.8,61.8-61.8c34.1,0,61.8,27.6,61.8,61.8c0,34.2-27.6,61.8-61.8,61.8C471.5,133.6,443.8,105.9,443.8,71.8z M672,952.9L672,952.9c-0.5-1.8-1.1-3.7-1.7-5.7c14.9-19.3,23.5-42.6,21.6-71.6c-1.9-30.1-18.5-63.1-35.8-88.5h-0.5c0.5-1.7,1-3.5,1.4-5.2h0.3c3.9-0.2,13.6-7.5,11.1-16.8c-2.9-11.5-13.5-14.1-17.2-14.1h-0.6c-0.9-1.9-2.1-4-3.7-6.2h0.3c-37.5-68.6-73.1-129.1-83.2-286.3h-0.1l0.4-4.5c23.6,0,43.6,0,44.4,0c2.7-0.3,21.2-9.9,19.5-27.7c-2-22.3-21.2-31.8-23.8-31.8c-0.9,0-14.1,0-31.3,0l0.1-0.7c-5.4-88.2,38.9-167.1,73.6-191.6c11.2-7.8,26.5-25.6,11.6-46.9c-10.8-15.4-27-15-33.9-13.1c-6.9,1.9-20.4,13.1-36.2,13.1c-13.7,0-26.9-5.8-37.9-12.9L546,139l-0.3,0.2l-0.4-0.3l-2.3,2.1c-11.3,8-25,15.9-39.4,15.9c-15.9,0-30.4-9.3-42.4-18c-11.9,8.7-27.2,16.5-43.1,16.5c-15.8,0-29.2-11.1-36.2-13c-6.9-1.9-23.1-2.3-33.9,13c-14.9,21.4,0.4,39.1,11.5,46.9c34.9,24.6,79.3,103.7,73.7,192.3c-19.1,0-34.7,0-35.7,0c-2.6,0-22.9,8-24.9,30.2c-1.8,17.8,17.8,28.9,20.6,29.3c0.9,0,23.7,0,48.9,0l1.6,4.5h-0.5c-10.1,157.2-44.9,215.7-82.9,286.3h0.2c-1.5,2.3-2.6,4.3-3.3,6.2h-2.1c-3.8,0-14.4,2.6-17.2,14.1c-2.5,8.9,6.5,16.1,10.6,16.7c-0.3,1.7-0.6,3.4-0.8,5.3h-0.2c-14.9,23-37.1,53-39.3,82.7c-2.2,29.4,6.7,57.8,21.5,77.2c-0.4,2.1-0.7,4.2-0.8,6h-0.9c0,0-9.5,7-12.7,14.4c-3.2,7.5-3.3,22.5-3.3,22.5h375.9c0,0-0.9-14.9-3.7-21.9C681.6,960.8,672,952.9,672,952.9z"/></g><g></g><g></g><g></g><g></g><g></g><g></g><g></g><g></g><g></g><g></g><g></g><g></g><g></g><g></g><g></g></g>
</svg>